# xmcd
#
# Track frame offsets:
# 150
# 17542
# 30233
# 48072
# 67466
# 89134
# 110256
# 134300
# 153025
# 180521
# 205771
# 221488
# 238605
# 256435
#
# Disc length: 3532 seconds
#
#
# Revision: 0
# Processed by: cddbd v1.5.2PL0 Copyright (c) Steve Scherf et al.
# Submitted via: FreeRIP 2.35 
#
DISCID=b70dca0e
DTITLE=Manteca Beat - Manteca-licious!
DYEAR=2007
DGENRE=Blues
TTITLE0=I-10
TTITLE1=Five Minutes More
TTITLE2=I Know You Don't Love Me No More
TTITLE3=Take Your Time
TTITLE4=Careless Love
TTITLE5=Silver Bird
TTITLE6=The Night Is Young And You Are So Beautiful
TTITLE7=Manteca-licious!
TTITLE8=Plus Ca Change
TTITLE9=My Blue Angel
TTITLE10=Make It All Right
TTITLE11=I Don't Worry About A Thing
TTITLE12=Plus La Meme
TTITLE13=Please Don't Talk About Me When I'm Gone
EXTD=Austin TX\nhttp://mantecabeat.pksax.com
EXTT0=
EXTT1=
EXTT2=
EXTT3=
EXTT4=
EXTT5=
EXTT6=
EXTT7=
EXTT8=
EXTT9=
EXTT10=
EXTT11=
EXTT12=
EXTT13=
PLAYORDER=
